<svg xmlns="http://www.w3.org/2000/svg" viewBox="0 0 1280 720" width="1280" height="720" font-family="Segoe UI, Malgun Gothic, sans-serif">
<rect width="1280" height="720" fill="#F2F4F7"/>
<rect x="0" y="0" width="1280" height="48" fill="#0F1A2A"/>
<rect x="24" y="8" width="176" height="40" rx="8" fill="#E4E8ED" stroke="#3A4B63" stroke-width="1"/>
<text x="34" y="28" font-size="11" font-weight="600" fill="#F2F5F9">리포트 이름</text>
<rect x="224" y="8" width="328" height="32" rx="8" fill="#23344D" stroke="#3A4B63" stroke-width="1"/>
<text x="234" y="28" font-size="11" font-weight="600" fill="#F2F5F9">페이지 (세로)</text>
<rect x="568" y="8" width="152" height="32" rx="8" fill="#23344D" stroke="#3A4B63" stroke-width="1"/>
<text x="578" y="28" font-size="11" font-weight="600" fill="#F2F5F9">기간</text>
<rect x="736" y="8" width="136" height="32" rx="8" fill="#23344D" stroke="#3A4B63" stroke-width="1"/>
<text x="746" y="28" font-size="11" font-weight="600" fill="#F2F5F9">채널</text>
<rect x="24" y="48" width="816" height="32" rx="8" fill="#E4E8ED" stroke="#8E99A6" stroke-width="1"/>
<text x="34" y="68" font-size="11" font-weight="600" fill="#14202B">페이지 제목</text>
<rect x="856" y="48" width="400" height="32" rx="8" fill="#E4E8ED" stroke="#8E99A6" stroke-width="1"/>
<text x="866" y="68" font-size="11" font-weight="600" fill="#14202B">지금 보는 범위 (측정값)</text>
<rect x="24" y="80" width="1232" height="32" rx="8" fill="#E4E8ED" stroke="#8E99A6" stroke-width="1"/>
<text x="34" y="100" font-size="11" font-weight="600" fill="#14202B">결론 한 줄 (측정값)</text>
<rect x="960" y="0" width="104" height="48" rx="8" fill="#23344D" stroke="#3A4B63" stroke-width="1"/>
<text x="970" y="20" font-size="11" font-weight="600" fill="#F2F5F9">추가 필터 1</text>
<rect x="1152" y="0" width="104" height="48" rx="8" fill="#23344D" stroke="#3A4B63" stroke-width="1"/>
<text x="1162" y="20" font-size="11" font-weight="600" fill="#F2F5F9">추가 필터 2</text>
<rect x="24" y="120" width="1232" height="256" rx="8" fill="#E4E8ED" stroke="#8E99A6" stroke-width="1"/>
<text x="34" y="140" font-size="13" font-weight="600" fill="#14202B">작년 → 올해 분해</text>
<text x="34" y="158" font-size="11" fill="#4A5563">waterfallChart · 24,120 · 1232×256</text>
<rect x="24" y="384" width="712" height="312" rx="8" fill="#E8EEF6" stroke="#8E99A6" stroke-width="1"/>
<text x="34" y="404" font-size="13" font-weight="600" fill="#14202B">가장 크게 움직인 칸</text>
<text x="34" y="422" font-size="11" fill="#4A5563">tableEx · 24,384 · 712×312</text>
<rect x="752" y="384" width="504" height="312" rx="8" fill="#DCE8F8" stroke="#8E99A6" stroke-width="1"/>
<text x="762" y="404" font-size="13" font-weight="600" fill="#14202B">구성비</text>
<text x="762" y="422" font-size="11" fill="#4A5563">barChart · 752,384 · 504×312</text>
<rect x="1080" y="8" width="64" height="24" rx="8" fill="#E4E8ED" stroke="#3A4B63" stroke-width="1"/>
<text x="1090" y="28" font-size="11" font-weight="600" fill="#F2F5F9">slicer name</text>
<rect x="888" y="8" width="64" height="24" rx="8" fill="#E4E8ED" stroke="#3A4B63" stroke-width="1"/>
<text x="898" y="28" font-size="11" font-weight="600" fill="#F2F5F9">slicer name</text>
<text x="1256" y="714" font-size="11" text-anchor="end" fill="#5A6471">다리 · 폭포 — 작년에서 올해까지 무엇이 바꿨나</text>
</svg>