<svg xmlns="http://www.w3.org/2000/svg" viewBox="0 0 1280 720" width="1280" height="720" font-family="Segoe UI, Malgun Gothic, sans-serif">
<rect width="1280" height="720" fill="#F2F4F7"/>
<rect x="0" y="0" width="192" height="720" fill="#0F1A2A"/>
<rect x="16" y="24" width="160" height="48" rx="8" fill="#E4E8ED" stroke="#3A4B63" stroke-width="1"/>
<text x="26" y="44" font-size="11" font-weight="600" fill="#F2F5F9">리포트 이름</text>
<rect x="16" y="96" width="160" height="136" rx="8" fill="#23344D" stroke="#3A4B63" stroke-width="1"/>
<text x="26" y="116" font-size="13" font-weight="600" fill="#F2F5F9">페이지 (세로)</text>
<text x="26" y="134" font-size="11" fill="#AEB9C7">pageNavigator · 16,96 · 160×136</text>
<rect x="16" y="256" width="160" height="72" rx="8" fill="#23344D" stroke="#3A4B63" stroke-width="1"/>
<text x="26" y="276" font-size="13" font-weight="600" fill="#F2F5F9">기간</text>
<text x="26" y="294" font-size="11" fill="#AEB9C7">advancedSlicerVisual · 16,256 · 160×72</text>
<rect x="16" y="344" width="160" height="72" rx="8" fill="#23344D" stroke="#3A4B63" stroke-width="1"/>
<text x="26" y="364" font-size="13" font-weight="600" fill="#F2F5F9">채널</text>
<text x="26" y="382" font-size="11" fill="#AEB9C7">advancedSlicerVisual · 16,344 · 160×72</text>
<rect x="16" y="664" width="160" height="32" rx="8" fill="#E4E8ED" stroke="#3A4B63" stroke-width="1"/>
<text x="26" y="684" font-size="11" font-weight="600" fill="#F2F5F9">데이터 기준일</text>
<rect x="216" y="24" width="688" height="40" rx="8" fill="#E4E8ED" stroke="#8E99A6" stroke-width="1"/>
<text x="226" y="44" font-size="11" font-weight="600" fill="#14202B">페이지 제목</text>
<rect x="920" y="24" width="336" height="40" rx="8" fill="#E4E8ED" stroke="#8E99A6" stroke-width="1"/>
<text x="930" y="44" font-size="11" font-weight="600" fill="#14202B">지금 보는 범위 (측정값)</text>
<rect x="216" y="64" width="1040" height="32" rx="8" fill="#E4E8ED" stroke="#8E99A6" stroke-width="1"/>
<text x="226" y="84" font-size="11" font-weight="600" fill="#14202B">결론 한 줄 (측정값)</text>
<rect x="216" y="112" width="512" height="112" rx="8" fill="#CFE0F5" stroke="#8E99A6" stroke-width="1"/>
<text x="226" y="132" font-size="13" font-weight="600" fill="#14202B">왼쪽 대상 요약</text>
<text x="226" y="150" font-size="11" fill="#4A5563">cardVisual · 216,112 · 512×112</text>
<rect x="744" y="112" width="512" height="112" rx="8" fill="#CFE0F5" stroke="#8E99A6" stroke-width="1"/>
<text x="754" y="132" font-size="13" font-weight="600" fill="#14202B">오른쪽 대상 요약</text>
<text x="754" y="150" font-size="11" fill="#4A5563">cardVisual · 744,112 · 512×112</text>
<rect x="216" y="240" width="512" height="216" rx="8" fill="#DCE8F8" stroke="#8E99A6" stroke-width="1"/>
<text x="226" y="260" font-size="13" font-weight="600" fill="#14202B">왼쪽 추이</text>
<text x="226" y="278" font-size="11" fill="#4A5563">lineChart · 216,240 · 512×216</text>
<rect x="744" y="240" width="512" height="216" rx="8" fill="#DCE8F8" stroke="#8E99A6" stroke-width="1"/>
<text x="754" y="260" font-size="13" font-weight="600" fill="#14202B">오른쪽 추이</text>
<text x="754" y="278" font-size="11" fill="#4A5563">lineChart · 744,240 · 512×216</text>
<rect x="216" y="472" width="512" height="224" rx="8" fill="#E8EEF6" stroke="#8E99A6" stroke-width="1"/>
<text x="226" y="492" font-size="13" font-weight="600" fill="#14202B">왼쪽 상위 항목</text>
<text x="226" y="510" font-size="11" fill="#4A5563">tableEx · 216,472 · 512×224</text>
<rect x="744" y="472" width="512" height="224" rx="8" fill="#E8EEF6" stroke="#8E99A6" stroke-width="1"/>
<text x="754" y="492" font-size="13" font-weight="600" fill="#14202B">오른쪽 상위 항목</text>
<text x="754" y="510" font-size="11" fill="#4A5563">tableEx · 744,472 · 512×224</text>
<text x="1256" y="714" font-size="11" text-anchor="end" fill="#5A6471">좌우 비교 · 대조 — 둘 중 무엇이 다른가</text>
</svg>