<svg xmlns="http://www.w3.org/2000/svg" viewBox="0 0 1280 720" width="1280" height="720" font-family="Segoe UI, Malgun Gothic, sans-serif">
<rect width="1280" height="720" fill="#F2F4F7"/>
<rect x="0" y="0" width="1280" height="48" fill="#0F1A2A"/>
<rect x="24" y="8" width="176" height="40" rx="8" fill="#E4E8ED" stroke="#3A4B63" stroke-width="1"/>
<text x="34" y="28" font-size="11" font-weight="600" fill="#F2F5F9">리포트 이름</text>
<rect x="224" y="8" width="712" height="32" rx="8" fill="#23344D" stroke="#3A4B63" stroke-width="1"/>
<text x="234" y="28" font-size="11" font-weight="600" fill="#F2F5F9">페이지 (세로)</text>
<rect x="952" y="8" width="152" height="32" rx="8" fill="#23344D" stroke="#3A4B63" stroke-width="1"/>
<text x="962" y="28" font-size="11" font-weight="600" fill="#F2F5F9">기간</text>
<rect x="1120" y="8" width="136" height="32" rx="8" fill="#23344D" stroke="#3A4B63" stroke-width="1"/>
<text x="1130" y="28" font-size="11" font-weight="600" fill="#F2F5F9">채널</text>
<rect x="24" y="56" width="816" height="32" rx="8" fill="#E4E8ED" stroke="#8E99A6" stroke-width="1"/>
<text x="34" y="76" font-size="11" font-weight="600" fill="#14202B">페이지 제목</text>
<rect x="856" y="56" width="400" height="32" rx="8" fill="#E4E8ED" stroke="#8E99A6" stroke-width="1"/>
<text x="866" y="76" font-size="11" font-weight="600" fill="#14202B">지금 보는 범위 (측정값)</text>
<rect x="24" y="88" width="1232" height="24" rx="8" fill="#E4E8ED" stroke="#8E99A6" stroke-width="1"/>
<text x="34" y="108" font-size="11" font-weight="600" fill="#14202B">결론 한 줄 (측정값)</text>
<rect x="24" y="120" width="296" height="104" rx="8" fill="#CFE0F5" stroke="#8E99A6" stroke-width="1"/>
<text x="34" y="140" font-size="13" font-weight="600" fill="#14202B">매출</text>
<text x="34" y="158" font-size="11" fill="#4A5563">cardVisual · 24,120 · 296×104</text>
<rect x="336" y="120" width="296" height="104" rx="8" fill="#CFE0F5" stroke="#8E99A6" stroke-width="1"/>
<text x="346" y="140" font-size="13" font-weight="600" fill="#14202B">이익</text>
<text x="346" y="158" font-size="11" fill="#4A5563">cardVisual · 336,120 · 296×104</text>
<rect x="648" y="120" width="296" height="104" rx="8" fill="#CFE0F5" stroke="#8E99A6" stroke-width="1"/>
<text x="658" y="140" font-size="13" font-weight="600" fill="#14202B">목표 달성률</text>
<text x="658" y="158" font-size="11" fill="#4A5563">cardVisual · 648,120 · 296×104</text>
<rect x="960" y="120" width="296" height="104" rx="8" fill="#CFE0F5" stroke="#8E99A6" stroke-width="1"/>
<text x="970" y="140" font-size="13" font-weight="600" fill="#14202B">객단가</text>
<text x="970" y="158" font-size="11" fill="#4A5563">cardVisual · 960,120 · 296×104</text>
<rect x="24" y="240" width="608" height="208" rx="8" fill="#DCE8F8" stroke="#8E99A6" stroke-width="1"/>
<text x="34" y="260" font-size="13" font-weight="600" fill="#14202B">월별 매출: 올해·작년·목표</text>
<text x="34" y="278" font-size="11" fill="#4A5563">lineChart · 24,240 · 608×208</text>
<rect x="648" y="240" width="608" height="208" rx="8" fill="#DCE8F8" stroke="#8E99A6" stroke-width="1"/>
<text x="658" y="260" font-size="13" font-weight="600" fill="#14202B">카테고리 목표 대비 (발산 막대)</text>
<text x="658" y="278" font-size="11" fill="#4A5563">barChart · 648,240 · 608×208</text>
<rect x="24" y="464" width="608" height="232" rx="8" fill="#E8EEF6" stroke="#8E99A6" stroke-width="1"/>
<text x="34" y="484" font-size="13" font-weight="600" fill="#14202B">주의 매장 → 드릴스루</text>
<text x="34" y="502" font-size="11" fill="#4A5563">tableEx · 24,464 · 608×232</text>
<rect x="648" y="464" width="608" height="232" rx="8" fill="#DCE8F8" stroke="#8E99A6" stroke-width="1"/>
<text x="658" y="484" font-size="13" font-weight="600" fill="#14202B">권역별 매출 (7개 막대가 스크롤 없이 들어가는 높이)</text>
<text x="658" y="502" font-size="11" fill="#4A5563">barChart · 648,464 · 608×232</text>
<text x="1256" y="714" font-size="11" text-anchor="end" fill="#5A6471">요약 · 경영 요약 — 목표 대비 어디쯤인가</text>
</svg>